<svg width="981.3999511718749px" height="225.239990234375px" xmlns="http://www.w3.org/2000/svg" viewBox="-240.69997558593747 -37.6199951171875 981.3999511718749 225.239990234375" style="background: none;" preserveAspectRatio="xMidYMid"><defs><filter id="editing-raise" x="-100%" y="-100%" width="300%" height="300%"><feFlood flood-color="#ccc" result="flood-surface"></feFlood><feFlood flood-color="#5c5b5b" result="flood-extrude"></feFlood><feMorphology operator="erode" in="SourceAlpha" radius="1" result="erode"></feMorphology><feConvolveMatrix in="erode" result="shadow" order="11,8" divisor="1" kernelMatrix="0 0 0 1 1 1 1 1 0 0 0 0 0 1 0 0 0 0 0 1 0 0 0 0 1 0 0 0 0 0 1 0 0 0 0 1 0 0 0 0 0 1 0 0 0 0 1 0 0 0 0 0 1 0 0 0 0 0 1 0 0 0 1 0 0 0 0 0 0 1 1 0 1 1 0 0 0 0 0 0 0 0 1 0 0 0 0 0"></feConvolveMatrix><feOffset dx="0" dy="4" in="shadow" result="offset"></feOffset><feGaussianBlur in="offset" stdDeviation="0.2" result="blur"></feGaussianBlur><feComposite operator="in" in="flood-extrude" in2="blur" result="extrude"></feComposite><feMorphology operator="erode" in="SourceAlpha" radius="1" result="erode2"></feMorphology><feConvolveMatrix in="erode2" result="out" order="4,4" divisor="1" kernelMatrix="0 1 1 0 1 0 0 1 1 0 0 1 0 1 1 0 "></feConvolveMatrix><feComposite operator="in" in="flood-surface" in2="out" result="text"></feComposite><feMerge><feMergeNode in="extrude"></feMergeNode><feMergeNode in="text"></feMergeNode></feMerge></filter></defs><g filter="url(#editing-raise)"><g transform="translate(-101.80995786190033, 133.94499826431274)"><path d="M0.90-0.64L0.90-0.64L17.02-84.48L17.02-84.48Q32.13-85.76 41.86-85.76L41.86-85.76L41.86-85.76Q51.58-85.76 57.86-84.93L57.86-84.93L57.86-84.93Q64.13-84.10 68.35-81.92L68.35-81.92L68.35-81.92Q76.80-77.82 76.80-66.56L76.80-66.56L76.80-66.56Q76.80-60.03 71.17-54.53L71.17-54.53L71.17-54.53Q65.92-49.54 60.16-48.38L60.16-48.38L60.16-48.38Q66.30-47.36 70.66-42.75L70.66-42.75L70.66-42.75Q75.26-37.89 75.26-30.34L75.26-30.34L75.26-30.34Q75.26-15.74 64.38-7.23L64.38-7.23L64.38-7.23Q53.50 1.28 32.13 1.28L32.13 1.28L32.13 1.28Q17.41 1.28 0.90-0.64ZM35.71-41.22L29.31-8.06L29.31-8.06Q30.46-7.94 30.72-7.94L30.72-7.94L31.87-7.94L31.87-7.94Q42.37-7.94 46.85-14.85L46.85-14.85L46.85-14.85Q50.18-20.22 50.18-30.08L50.18-30.08L50.18-30.08Q50.18-35.33 46.78-38.14L46.78-38.14L46.78-38.14Q43.39-40.96 35.71-41.22L35.71-41.22ZM55.17-66.43L55.17-66.43L55.17-66.43Q55.17-77.06 44.93-77.06L44.93-77.06L43.78-77.06L43.78-77.06Q43.26-77.06 42.50-76.93L42.50-76.93L37.38-49.92L38.66-49.92L38.66-49.92Q55.17-50.30 55.17-66.43ZM89.28-3.84L89.28-3.84L89.28-3.84Q86.27-7.17 84.93-12.42L84.93-12.42L84.93-12.42Q83.58-17.66 83.58-26.24L83.58-26.24L83.58-26.24Q83.58-34.82 86.53-42.62L86.53-42.62L86.53-42.62Q89.47-50.43 94.85-56.06L94.85-56.06L94.85-56.06Q105.86-67.84 124.03-67.84L124.03-67.84L124.03-67.84Q130.56-67.84 135.30-65.66L135.30-65.66L157.18-67.84L147.71-17.92L147.71-17.92Q147.33-16.38 147.33-13.57L147.33-13.57L147.33-13.57Q147.33-10.75 149.06-8.96L149.06-8.96L149.06-8.96Q150.78-7.17 153.34-6.91L153.34-6.91L153.34-6.91Q152.06-2.56 147.39 0L147.39 0L147.39 0Q142.72 2.56 137.47 2.56L137.47 2.56L137.47 2.56Q132.22 2.56 128.70 0.58L128.70 0.58L128.70 0.58Q125.18-1.41 124.16-4.74L124.16-4.74L124.16-4.74Q122.11-1.54 117.76 0.51L117.76 0.51L117.76 0.51Q113.41 2.56 107.58 2.56L107.58 2.56L107.58 2.56Q101.76 2.56 97.02 1.02L97.02 1.02L97.02 1.02Q92.29-0.51 89.28-3.84ZM116.29-55.81L116.29-55.81L116.29-55.81Q114.82-53.50 113.54-49.60L113.54-49.60L113.54-49.60Q112.26-45.70 110.14-35.26L110.14-35.26L110.14-35.26Q108.03-24.83 108.03-17.41L108.03-17.41L108.03-17.41Q108.03-9.98 109.18-7.81L109.18-7.81L109.18-7.81Q110.34-5.63 112.38-5.63L112.38-5.63L112.38-5.63Q116.48-5.63 119.49-9.54L119.49-9.54L119.49-9.54Q122.50-13.44 123.65-20.35L123.65-20.35L130.43-57.86L130.43-57.86Q127.74-60.16 124.61-60.16L124.61-60.16L124.61-60.16Q121.47-60.16 119.62-59.14L119.62-59.14L119.62-59.14Q117.76-58.11 116.29-55.81ZM202.37-44.93L202.37-44.93L202.37-44.93Q204.16-49.66 204.16-53.76L204.16-53.76L204.16-53.76Q204.16-61.31 198.02-61.31L198.02-61.31L198.02-61.31Q194.82-61.31 192.19-58.43L192.19-58.43L192.19-58.43Q189.57-55.55 189.57-51.97L189.57-51.97L189.57-51.97Q189.57-49.41 191.62-47.36L191.62-47.36L191.62-47.36Q194.56-44.54 202.11-39.94L202.11-39.94L202.11-39.94Q209.66-35.33 212.54-31.55L212.54-31.55L212.54-31.55Q215.42-27.78 215.42-22.59L215.42-22.59L215.42-22.59Q215.42-17.41 212.93-12.67L212.93-12.67L212.93-12.67Q210.43-7.94 205.95-4.61L205.95-4.61L205.95-4.61Q196.35 2.56 180.99 2.56L180.99 2.56L180.99 2.56Q172.67 2.56 166.27-1.79L166.27-1.79L166.27-1.79Q159.87-6.02 159.87-11.01L159.87-11.01L159.87-11.01Q159.87-16 163.52-18.94L163.52-18.94L163.52-18.94Q167.17-21.89 172.54-21.89L172.54-21.89L172.54-21.89Q177.92-21.89 181.25-19.84L181.25-19.84L181.25-19.84Q179.58-15.62 179.58-12.80L179.58-12.80L179.58-12.80Q179.58-4.35 186.75-4.35L186.75-4.35L186.75-4.35Q189.82-4.35 191.87-6.27L191.87-6.27L191.87-6.27Q193.92-8.19 193.92-11.52L193.92-11.52L193.92-11.52Q193.92-18.05 182.91-24.96L182.91-24.96L182.91-24.96Q173.95-30.85 171.90-33.15L171.90-33.15L171.90-33.15Q168.45-37.25 168.45-42.37L168.45-42.37L168.45-42.37Q168.45-47.49 170.88-52.35L170.88-52.35L170.88-52.35Q173.31-57.22 177.79-60.67L177.79-60.67L177.79-60.67Q187.14-67.84 203.39-67.84L203.39-67.84L203.39-67.84Q211.71-67.84 216.64-64.51L216.64-64.51L216.64-64.51Q221.57-61.18 221.57-55.55L221.57-55.55L221.57-55.55Q221.57-49.92 218.18-46.72L218.18-46.72L218.18-46.72Q214.78-43.52 208.64-43.52L208.64-43.52L208.64-43.52Q204.42-43.52 202.37-44.93ZM264.58-44.93L264.58-44.93L264.58-44.93Q266.37-49.66 266.37-53.76L266.37-53.76L266.37-53.76Q266.37-61.31 260.22-61.31L260.22-61.31L260.22-61.31Q257.02-61.31 254.40-58.43L254.40-58.43L254.40-58.43Q251.78-55.55 251.78-51.97L251.78-51.97L251.78-51.97Q251.78-49.41 253.82-47.36L253.82-47.36L253.82-47.36Q256.77-44.54 264.32-39.94L264.32-39.94L264.32-39.94Q271.87-35.33 274.75-31.55L274.75-31.55L274.75-31.55Q277.63-27.78 277.63-22.59L277.63-22.59L277.63-22.59Q277.63-17.41 275.14-12.67L275.14-12.67L275.14-12.67Q272.64-7.94 268.16-4.61L268.16-4.61L268.16-4.61Q258.56 2.56 243.20 2.56L243.20 2.56L243.20 2.56Q234.88 2.56 228.48-1.79L228.48-1.79L228.48-1.79Q222.08-6.02 222.08-11.01L222.08-11.01L222.08-11.01Q222.08-16 225.73-18.94L225.73-18.94L225.73-18.94Q229.38-21.89 234.75-21.89L234.75-21.89L234.75-21.89Q240.13-21.89 243.46-19.84L243.46-19.84L243.46-19.84Q241.79-15.62 241.79-12.80L241.79-12.80L241.79-12.80Q241.79-4.35 248.96-4.35L248.96-4.35L248.96-4.35Q252.03-4.35 254.08-6.27L254.08-6.27L254.08-6.27Q256.13-8.19 256.13-11.52L256.13-11.52L256.13-11.52Q256.13-18.05 245.12-24.96L245.12-24.96L245.12-24.96Q236.16-30.85 234.11-33.15L234.11-33.15L234.11-33.15Q230.66-37.25 230.66-42.37L230.66-42.37L230.66-42.37Q230.66-47.49 233.09-52.35L233.09-52.35L233.09-52.35Q235.52-57.22 240-60.67L240-60.67L240-60.67Q249.34-67.84 265.60-67.84L265.60-67.84L265.60-67.84Q273.92-67.84 278.85-64.51L278.85-64.51L278.85-64.51Q283.78-61.18 283.78-55.55L283.78-55.55L283.78-55.55Q283.78-49.92 280.38-46.72L280.38-46.72L280.38-46.72Q276.99-43.52 270.85-43.52L270.85-43.52L270.85-43.52Q266.62-43.52 264.58-44.93ZM379.26-14.21L379.26-14.21L379.26-14.21Q379.26-8.58 385.02-6.91L385.02-6.91L385.02-6.91Q383.62-2.18 378.11 0.38L378.11 0.38L378.11 0.38Q373.50 2.56 368.45 2.56L368.45 2.56L368.45 2.56Q363.39 2.56 360.77 1.22L360.77 1.22L360.77 1.22Q358.14-0.13 356.74-2.30L356.74-2.30L356.74-2.30Q354.43-5.63 354.43-11.90L354.43-11.90L354.43-11.90Q354.43-15.62 356.48-25.86L356.48-25.86L358.27-35.58L358.27-35.58Q360.45-46.72 360.45-50.82L360.45-50.82L360.45-50.82Q360.45-57.98 356.48-57.98L356.48-57.98L356.48-57.98Q351.49-57.98 348.29-50.69L348.29-50.69L348.29-50.69Q347.01-47.87 346.11-43.65L346.11-43.65L337.41 0L311.68 2.56L329.73-89.60L355.46-92.16L354.43-87.04L354.43-87.04Q350.85-67.33 347.78-60.67L347.78-60.67L347.78-60.67Q354.94-67.84 368.13-67.84L368.13-67.84L368.13-67.84Q382.08-67.84 384.64-58.62L384.64-58.62L384.64-58.62Q385.54-55.68 385.54-53.12L385.54-53.12L385.54-53.12Q385.54-50.56 385.34-48.58L385.34-48.58L385.34-48.58Q385.15-46.59 384.51-43.01L384.51-43.01L382.85-33.79L379.90-19.33L379.90-19.33Q379.26-16.38 379.26-14.21ZM423.30 2.56L423.30 2.56L423.30 2.56Q395.14 2.56 395.14-23.94L395.14-23.94L395.14-23.94Q395.14-42.75 405.50-54.91L405.50-54.91L405.50-54.91Q416.51-67.84 435.58-67.84L435.58-67.84L435.58-67.84Q449.41-67.84 456.45-61.44L456.45-61.44L456.45-61.44Q463.49-55.04 463.49-41.60L463.49-41.60L463.49-41.60Q463.49-21.12 452.48-9.22L452.48-9.22L452.48-9.22Q441.73 2.56 423.30 2.56ZM426.62-53.12L426.62-53.12L426.62-53.12Q425.09-49.66 423.87-44.48L423.87-44.48L423.87-44.48Q422.66-39.30 421.12-31.10L421.12-31.10L421.12-31.10Q419.58-22.91 419.58-12.80L419.58-12.80L419.58-12.80Q419.58-9.47 420.67-7.30L420.67-7.30L420.67-7.30Q421.76-5.12 424.70-5.12L424.70-5.12L424.70-5.12Q427.65-5.12 429.50-6.53L429.50-6.53L429.50-6.53Q431.36-7.94 432.77-11.26L432.77-11.26L432.77-11.26Q435.33-17.15 437.38-28.10L437.38-28.10L437.38-28.10Q439.42-39.04 439.62-43.78L439.62-43.78L439.62-43.78Q439.81-48.51 439.81-52.03L439.81-52.03L439.81-52.03Q439.81-55.55 438.78-57.86L438.78-57.86L438.78-57.86Q437.76-60.16 434.88-60.16L434.88-60.16L434.88-60.16Q432-60.16 430.08-58.37L430.08-58.37L430.08-58.37Q428.16-56.58 426.62-53.12ZM469.38-6.14L469.38-6.14L485.25-89.60L511.23-92.16L507.26-72.58L507.26-72.58Q505.86-66.56 504.06-62.34L504.06-62.34L504.06-62.34Q506.88-65.92 513.02-67.33L513.02-67.33L513.02-67.33Q514.82-67.84 516.99-67.84L516.99-67.84L516.99-67.84Q528.90-67.84 535.42-60.61L535.42-60.61L535.42-60.61Q541.95-53.38 541.95-39.42L541.95-39.42L541.95-39.42Q541.95-21.25 531.58-9.86L531.58-9.86L531.58-9.86Q520.45 2.56 500.22 2.56L500.22 2.56L500.22 2.56Q486.27 2.56 475.78-2.05L475.78-2.05L475.78-2.05Q472.06-3.71 469.38-6.14ZM501.89-44.80L495.10-7.30L495.10-7.30Q497.79-4.99 501.12-4.99L501.12-4.99L501.12-4.99Q504.45-4.99 506.37-6.27L506.37-6.27L506.37-6.27Q508.29-7.55 509.70-10.11L509.70-10.11L509.70-10.11Q513.54-17.02 516.61-38.14L516.61-38.14L516.61-38.14Q517.50-44.16 517.50-50.18L517.50-50.18L517.50-50.18Q517.50-56.19 516.16-58.11L516.16-58.11L516.16-58.11Q514.82-60.03 512.26-60.03L512.26-60.03L512.26-60.03Q504.45-60.03 501.89-44.80L501.89-44.80ZM547.97-6.14L547.97-6.14L563.84-89.60L589.82-92.16L585.86-72.58L585.86-72.58Q584.45-66.56 582.66-62.34L582.66-62.34L582.66-62.34Q585.47-65.92 591.62-67.33L591.62-67.33L591.62-67.33Q593.41-67.84 595.58-67.84L595.58-67.84L595.58-67.84Q607.49-67.84 614.02-60.61L614.02-60.61L614.02-60.61Q620.54-53.38 620.54-39.42L620.54-39.42L620.54-39.42Q620.54-21.25 610.18-9.86L610.18-9.86L610.18-9.86Q599.04 2.56 578.82 2.56L578.82 2.56L578.82 2.56Q564.86 2.56 554.37-2.05L554.37-2.05L554.37-2.05Q550.66-3.71 547.97-6.14ZM580.48-44.80L573.70-7.30L573.70-7.30Q576.38-4.99 579.71-4.99L579.71-4.99L579.71-4.99Q583.04-4.99 584.96-6.27L584.96-6.27L584.96-6.27Q586.88-7.55 588.29-10.11L588.29-10.11L588.29-10.11Q592.13-17.02 595.20-38.14L595.20-38.14L595.20-38.14Q596.10-44.16 596.10-50.18L596.10-50.18L596.10-50.18Q596.10-56.19 594.75-58.11L594.75-58.11L594.75-58.11Q593.41-60.03 590.85-60.03L590.85-60.03L590.85-60.03Q583.04-60.03 580.48-44.80L580.48-44.80ZM668.93-14.46L668.93-14.46L668.93-14.46Q662.27-7.55 650.11-7.55L650.11-7.55L650.11-7.55Q634.88-7.55 631.68-18.69L631.68-18.69L631.68-18.69Q630.66-22.02 630.66-25.73L630.66-25.73L630.66-25.73Q630.66-29.44 631.42-33.28L631.42-33.28L637.44-65.28L663.42-67.84L656.38-30.59L656.38-30.59Q656.13-28.93 655.74-27.14L655.74-27.14L655.74-27.14Q655.36-25.34 655.36-23.49L655.36-23.49L655.36-23.49Q655.36-21.63 656-20.42L656-20.42L656-20.42Q656.64-19.20 657.54-18.43L657.54-18.43L657.54-18.43Q659.07-17.41 661.82-17.41L661.82-17.41L661.82-17.41Q664.58-17.41 666.94-20.74L666.94-20.74L666.94-20.74Q669.31-24.06 670.46-29.82L670.46-29.82L677.50-65.28L702.72-67.84L693.12-17.54L693.12-17.54Q688.38 7.04 678.66 16.77L678.66 16.77L678.66 16.77Q673.66 21.76 667.20 23.74L667.20 23.74L667.20 23.74Q660.74 25.73 652.42 25.73L652.42 25.73L652.42 25.73Q638.98 25.73 631.30 21.50L631.30 21.50L631.30 21.50Q623.62 17.28 623.62 10.24L623.62 10.24L623.62 10.24Q623.62 4.99 627.58 1.98L627.58 1.98L627.58 1.98Q631.55-1.02 637.70-1.02L637.70-1.02L637.70-1.02Q643.07-1.02 647.17 1.28L647.17 1.28L647.17 1.28Q649.60 2.69 650.75 4.48L650.75 4.48L650.75 4.48Q647.81 7.04 647.81 11.26L647.81 11.26L647.81 11.26Q647.81 16.90 652.93 16.90L652.93 16.90L652.93 16.90Q661.38 16.90 666.24-2.56L666.24-2.56L666.24-2.56Q667.65-8.32 668.93-14.46Z"></path></g></g><style>text {
  font-size: 64px;
  font-family: Arial Black;
  dominant-baseline: central;
  text-anchor: middle;
}</style></svg>